<svg version="1.1" xmlns="http://www.w3.org/2000/svg" xmlns:xlink="http://www.w3.org/1999/xlink" viewBox="0 0 172 172"><g fill="none" fill-rule="nonzero" stroke="none" stroke-width="1" stroke-linecap="butt" stroke-linejoin="miter" stroke-miterlimit="10" stroke-dasharray="" stroke-dashoffset="0" font-family="none" font-weight="none" font-size="none" text-anchor="none" style="mix-blend-mode: normal"><path d="M0,172v-172h172v172z" fill="none"></path><g fill="#e67e22"><path d="M150.36003,14.26335c-1.86189,0.05548 -3.62905,0.83363 -4.92708,2.1696l-7.16667,7.16667c-1.8722,1.79752 -2.62637,4.46674 -1.97165,6.97823c0.65473,2.51149 2.61604,4.4728 5.12753,5.12753c2.51149,0.65473 5.18071,-0.09944 6.97823,-1.97164l7.16667,-7.16667c2.11962,-2.06035 2.75694,-5.21064 1.60486,-7.93287c-1.15207,-2.72224 -3.85719,-4.45797 -6.81189,-4.37084zM48.26302,28.70866c-1.86781,-0.26427 -4.02879,0.94746 -6.52279,3.82129c-26.94667,26.9395 -26.94667,70.79032 0,97.72982c13.47333,13.47333 31.17041,20.21224 48.86491,20.21224c17.6945,0 35.39158,-6.73925 48.86491,-20.19825c5.53983,-5.977 4.74858,-9.64622 -1.37175,-11.35189c-13.3127,-8.06334 -25.79159,-17.44893 -37.45703,-28.00879c0.89266,-0.47868 1.78768,-1.07382 2.6595,-1.94564c5.59717,-5.59716 5.59717,-14.67106 0,-20.26823c-5.59716,-5.59717 -14.67106,-5.59717 -20.26822,0c-0.84957,0.84957 -1.44194,1.72006 -1.91765,2.58952c-10.17785,-11.42336 -19.56583,-23.92794 -28.10677,-37.48503c-1.30792,-3.07808 -2.8773,-4.83078 -4.74512,-5.09505zM121.69336,42.93001c-1.86189,0.05548 -3.62905,0.83363 -4.92708,2.1696l-7.16667,7.16667c-1.8722,1.79752 -2.62637,4.46674 -1.97165,6.97823c0.65473,2.51149 2.61604,4.4728 5.12753,5.12753c2.51149,0.65473 5.18071,-0.09944 6.97823,-1.97164l7.16667,-7.16667c2.11962,-2.06035 2.75694,-5.21064 1.60486,-7.93287c-1.15207,-2.72224 -3.85719,-4.45797 -6.81189,-4.37084z"></path></g></g></svg>